<?xml version="1.0" standalone="no"?><!DOCTYPE svg PUBLIC "-//W3C//DTD SVG 1.1//EN" "http://www.w3.org/Graphics/SVG/1.1/DTD/svg11.dtd"><svg t="1673058398338" class="icon" viewBox="0 0 1024 1024" version="1.1" xmlns="http://www.w3.org/2000/svg" p-id="9143" xmlns:xlink="http://www.w3.org/1999/xlink" width="16" height="16"><path d="M512.4 957c-45.2 0-89.8-13.2-125-39.4l-178-132.8c-47.2-35.2-84-108.8-84-167.2V309.8c0-63.8 46.8-131.6 106.8-154l206.4-77.4c41-15.4 105.6-15.4 146.4 0l206.4 77.4c60 22.4 106.8 90.2 106.8 154v307.4c0 58.8-36.8 132-84 167.2l-178 132.8c-34 26.6-78.6 39.8-123.8 39.8zM460.6 136.8l-206.4 77.4c-35.2 13.2-66.2 58-66.2 96v307.4c0 39.4 27.8 94.4 58.8 117.6l178 132.8c47.6 35.6 127.8 35.6 175.8 0l178-132.8c31.4-23.6 58.8-78.2 58.8-117.6V309.8c0-37.6-31-82.4-66.2-96L564.6 136.4c-28.2-10-76.2-10-104 0.4z" p-id="9144"></path><path d="M457 604c-7.8 0-15.8-2.8-22-9.2l-66.6-66.6c-12-12-12-31.8 0-43.8 12-12 31.8-12 43.8 0l44.6 44.6 156-156c12-12 31.8-12 43.8 0 12 12 12 31.8 0 43.8l-178 178c-6 6.4-13.8 9.2-21.6 9.2z" p-id="9145"></path></svg>