<?xml version="1.0" standalone="no"?><!DOCTYPE svg PUBLIC "-//W3C//DTD SVG 1.1//EN" "http://www.w3.org/Graphics/SVG/1.1/DTD/svg11.dtd"><svg t="1673057677478" class="icon" viewBox="0 0 1024 1024" version="1.1" xmlns="http://www.w3.org/2000/svg" p-id="1647" xmlns:xlink="http://www.w3.org/1999/xlink" width="16" height="16"><path d="M741.66784 161.24928l-1.77152 0c-95.5136 0-175.68256-10.86464-225.65888-68.01408-49.93024 57.14944-130.4576 68.01408-226.34496 68.01408-152.72448 0-156.90752 152.71936-156.90752 152.71936 0 85.3504-0.05632 166.74304-0.05632 343.11168 0 98.9952 236.7488 279.49056 366.08 310.20544 11.07968 2.62656 22.36928 2.62656 33.44384 0.06144 130.304-30.51008 366.8224-210.03264 366.8224-310.20544L897.27488 314.02496C897.28 202.71616 842.97216 161.24928 741.66784 161.24928zM842.48576 657.13664c0 56.832-187.66336 215.38304-307.5328 252.41088-13.75232 4.224-28.62592 4.224-42.32704 0-119.97696-37.18656-306.90304-195.74272-306.90304-252.4672L184.9344 423.87968l0.78848-108.13952c0.32256-10.16832 5.31456-99.69152 102.1696-99.69152 80.7936 0 162.72384-6.90176 226.35008-50.13504 63.57504 43.23328 145.49504 50.13504 227.42528 50.13504 77.26592 0 100.8128 22.90176 100.8128 97.97632L842.48064 657.13664zM508.89216 242.14016c-90.28608 0-165.18656 71.94624-165.18656 160.68608 0 88.7296 74.0864 167.17312 164.37248 167.17312 90.2912 0 164.27008-78.44352 164.27008-167.17312C672.34304 314.0864 599.17312 242.14016 508.89216 242.14016zM506.32192 520.192c-63.9488 0-115.79392-51.84-115.79392-115.78368 0-63.97952 51.84512-115.79904 115.79392-115.79904 63.9744 0 115.82464 51.81952 115.82464 115.79904C622.14656 468.352 570.29632 520.192 506.32192 520.192zM333.89568 746.04544c0-104.06912 98.10432-173.24544 185.20576-172.88192 103.82336 0.27648 140.75392 60.65152 151.33184 68.95616 4.13184-4.23936 32.26624-33.09568 32.26624-33.09568-44.65664-56.1664-106.87488-82.02752-183.59808-82.02752-128.95744 0-237.24544 92.24192-237.24544 219.01824L333.89568 746.04544zM584.15616 687.53408l75.92448 75.93472 138.99776-145.55648-27.82208-27.8272-112.00512 112.01024-43.3152-43.32544L584.15616 687.53408z" fill="#272636" p-id="1648"></path></svg>