<svg xmlns="http://www.w3.org/2000/svg" xmlns:xlink="http://www.w3.org/1999/xlink" viewBox="0 0 129.76 140.37"><defs><style>.cls-1{fill:url(#未命名的渐变_14);}.cls-2{fill:url(#未命名的渐变_14-2);}</style><linearGradient id="未命名的渐变_14" y1="-18.51" x2="86.5" y2="-18.51" gradientTransform="matrix(1, 0, 0, -1, 0, 36)" gradientUnits="userSpaceOnUse"><stop offset="0" stop-color="#6ca4d8"/><stop offset="0.1" stop-color="#5c95ce"/><stop offset="0.32" stop-color="#417cbd"/><stop offset="0.54" stop-color="#2e6ab1"/><stop offset="0.76" stop-color="#2360aa"/><stop offset="1" stop-color="#1f5ca8"/></linearGradient><linearGradient id="未命名的渐变_14-2" x1="-364.53" y1="63.9" x2="-278.03" y2="63.9" gradientTransform="matrix(-1, 0, 0, 1, -234.77, 21.97)" xlink:href="#未命名的渐变_14"/></defs><title>资源 2</title><g id="图层_2" data-name="图层 2"><g id="图层_1-2" data-name="图层 1"><path class="cls-1" d="M86.5,78a6.86,6.86,0,0,0-11.51-5l-.41.38L60.64,87.23A27.48,27.48,0,0,1,21.79,48.35L68.25,1.89A21.87,21.87,0,0,0,59.33,0,21.62,21.62,0,0,0,46.54,4.17L41.79,8.92,12.07,38.66A41.22,41.22,0,0,0,70.36,97L84.49,82.82A6.9,6.9,0,0,0,86.5,78Z"/><path class="cls-2" d="M43.25,62.43a6.86,6.86,0,0,0,11.52,5l.41-.39L69.11,53.14A27.49,27.49,0,0,1,108,92L61.5,138.48a21.86,21.86,0,0,0,21.72-2.27L88,131.46l29.72-29.74a41.22,41.22,0,0,0-58.3-58.3L45.26,57.55A7,7,0,0,0,43.25,62.43Z"/></g></g></svg>