<svg xmlns="http://www.w3.org/2000/svg" xmlns:xlink="http://www.w3.org/1999/xlink" viewBox="0 0 143.51 174.41"><defs><style>.cls-1{fill:url(#未命名的渐变_14);}.cls-2{fill:url(#未命名的渐变_14-2);}.cls-3{fill:url(#未命名的渐变_14-3);}.cls-4{fill:url(#未命名的渐变_14-4);}.cls-5{fill:url(#未命名的渐变_14-5);}.cls-6{fill:url(#未命名的渐变_14-6);}.cls-7{fill:url(#未命名的渐变_14-7);}.cls-8{fill:url(#未命名的渐变_14-8);}.cls-9{fill:url(#未命名的渐变_14-9);}</style><linearGradient id="未命名的渐变_14" y1="-0.5" x2="86.5" y2="-0.5" gradientTransform="matrix(1, 0, 0, -1, 0, 76.37)" gradientUnits="userSpaceOnUse"><stop offset="0" stop-color="#6ca4d8"/><stop offset="0.1" stop-color="#5c95ce"/><stop offset="0.32" stop-color="#417cbd"/><stop offset="0.54" stop-color="#2e6ab1"/><stop offset="0.76" stop-color="#2360aa"/><stop offset="1" stop-color="#1f5ca8"/></linearGradient><linearGradient id="未命名的渐变_14-2" x1="18.93" y1="86.26" x2="105.44" y2="86.26" gradientTransform="matrix(-1, 0, 0, 1, 148.69, 21.97)" xlink:href="#未命名的渐变_14"/><linearGradient id="未命名的渐变_14-3" x1="51.41" y1="74.69" x2="63.97" y2="74.69" gradientTransform="translate(33.03 -39.98)" xlink:href="#未命名的渐变_14"/><linearGradient id="未命名的渐变_14-4" x1="68.92" y1="80.98" x2="77.64" y2="80.98" gradientTransform="translate(32.91 -52.84)" xlink:href="#未命名的渐变_14"/><linearGradient id="未命名的渐变_14-5" x1="81.53" y1="73.68" x2="88.22" y2="73.68" gradientTransform="translate(24.35 -58.9)" xlink:href="#未命名的渐变_14"/><linearGradient id="未命名的渐变_14-6" x1="80.49" y1="58.43" x2="87.18" y2="58.43" gradientTransform="translate(13.88 -53.7)" xlink:href="#未命名的渐变_14"/><linearGradient id="未命名的渐变_14-7" x1="68.92" y1="66.15" x2="77.64" y2="66.15" gradientTransform="translate(22.42 -48.5)" xlink:href="#未命名的渐变_14"/><linearGradient id="未命名的渐变_14-8" x1="60.31" y1="55.53" x2="67" y2="55.53" gradientTransform="translate(17.73 -38.59)" xlink:href="#未命名的渐变_14"/><linearGradient id="未命名的渐变_14-9" x1="-37.57" y1="152.1" x2="20.92" y2="152.1" gradientTransform="matrix(-1, 0, 0, 1, 105.94, 0.8)" xlink:href="#未命名的渐变_14"/></defs><title>资源 3</title><g id="图层_2" data-name="图层 2"><g id="图层_1-2" data-name="图层 1"><path class="cls-1" d="M86.5,100.31a6.86,6.86,0,0,0-11.51-5l-.41.39L60.64,109.59A27.48,27.48,0,0,1,21.79,70.72L68.25,24.25a21.87,21.87,0,0,0-8.92-1.89,21.62,21.62,0,0,0-12.79,4.17l-4.75,4.75L12.07,61a41.22,41.22,0,0,0,58.29,58.29l14.13-14.13A6.88,6.88,0,0,0,86.5,100.31Z"/><path class="cls-2" d="M43.25,84.79a6.86,6.86,0,0,0,11.52,5l.41-.39L69.11,75.5A27.49,27.49,0,0,1,108,114.38L61.5,160.84a21.79,21.79,0,0,0,21.72-2.27L88,153.82l29.72-29.74a41.22,41.22,0,0,0-58.3-58.3L45.26,79.92A6.92,6.92,0,0,0,43.25,84.79Z"/><rect class="cls-3" x="84.44" y="28.43" width="12.56" height="12.56" transform="translate(2.02 74.32) rotate(-45)"/><rect class="cls-4" x="101.83" y="23.77" width="8.72" height="8.72" transform="translate(11.21 83.32) rotate(-45)"/><rect class="cls-5" x="105.88" y="11.43" width="6.69" height="6.69" transform="translate(21.54 81.56) rotate(-45)"/><rect class="cls-6" x="94.36" y="1.39" width="6.69" height="6.69" transform="translate(25.27 70.48) rotate(-45)"/><rect class="cls-7" x="91.34" y="13.28" width="8.72" height="8.72" transform="translate(15.55 72.84) rotate(-45)"/><rect class="cls-8" x="78.04" y="13.59" width="6.69" height="6.69" transform="translate(11.86 62.51) rotate(-45)"/><path class="cls-9" d="M85,172.51l37.24-37.24a21.79,21.79,0,0,1,21.25-2c-.72.85-1.49,1.69-2.29,2.5l-26.35,26.37-8.12,8.13A21.84,21.84,0,0,1,85,172.51Z"/></g></g></svg>