<svg xmlns="http://www.w3.org/2000/svg" xmlns:xlink="http://www.w3.org/1999/xlink" viewBox="0 0 152.97 152.05"><defs><style>.cls-1{fill:url(#未命名的渐变_14);}.cls-2{fill:url(#未命名的渐变_14-2);}.cls-3{fill:url(#未命名的渐变_14-3);}.cls-4{fill:url(#未命名的渐变_14-4);}.cls-5{fill:url(#未命名的渐变_14-5);}.cls-6{fill:url(#未命名的渐变_14-6);}.cls-7{fill:url(#未命名的渐变_14-7);}.cls-8{fill:url(#未命名的渐变_14-8);}.cls-9{fill:url(#未命名的渐变_14-9);}</style><linearGradient id="未命名的渐变_14" x1="9.46" y1="0.49" x2="95.96" y2="0.49" gradientTransform="matrix(1, 0, 0, -1, 0, 55)" gradientUnits="userSpaceOnUse"><stop offset="0" stop-color="#6ca4d8"/><stop offset="0.1" stop-color="#5c95ce"/><stop offset="0.32" stop-color="#417cbd"/><stop offset="0.54" stop-color="#2e6ab1"/><stop offset="0.76" stop-color="#2360aa"/><stop offset="1" stop-color="#1f5ca8"/></linearGradient><linearGradient id="未命名的渐变_14-2" x1="-713.26" y1="63.9" x2="-626.75" y2="63.9" gradientTransform="matrix(-1, 0, 0, 1, -574.04, 21.97)" xlink:href="#未命名的渐变_14"/><linearGradient id="未命名的渐变_14-3" x1="-731.02" y1="-143.85" x2="-718.46" y2="-143.85" gradientTransform="translate(774.05 273.16)" xlink:href="#未命名的渐变_14"/><linearGradient id="未命名的渐变_14-4" x1="-716.42" y1="-126.09" x2="-707.69" y2="-126.09" gradientTransform="translate(739.84 251.82)" xlink:href="#未命名的渐变_14"/><linearGradient id="未命名的渐变_14-5" x1="-699.73" y1="-109.15" x2="-693.05" y2="-109.15" gradientTransform="translate(701.12 233.97)" xlink:href="#未命名的渐变_14"/><linearGradient id="未命名的渐变_14-6" x1="-699.07" y1="-120.71" x2="-692.39" y2="-120.71" gradientTransform="translate(708.17 254.18)" xlink:href="#未命名的渐变_14"/><linearGradient id="未命名的渐变_14-7" x1="-711.4" y1="-138.71" x2="-702.67" y2="-138.71" gradientTransform="translate(740.19 276.9)" xlink:href="#未命名的渐变_14"/><linearGradient id="未命名的渐变_14-8" x1="-710.38" y1="-113.79" x2="-703.69" y2="-113.79" gradientTransform="translate(722.58 234.37)" xlink:href="#未命名的渐变_14"/><linearGradient id="未命名的渐变_14-9" x1="-769.76" y1="129.74" x2="-711.27" y2="129.74" gradientTransform="matrix(-1, 0, 0, 1, -616.79, 0.8)" xlink:href="#未命名的渐变_14"/></defs><title>资源 4</title><g id="图层_2" data-name="图层 2"><g id="图层_1-2" data-name="图层 1"><path class="cls-1" d="M96,78a6.86,6.86,0,0,0-11.51-5l-.41.38L70.1,87.23A27.48,27.48,0,0,1,31.25,48.35L77.71,1.89A21.83,21.83,0,0,0,56,4.17L51.24,8.92,21.53,38.66A41.22,41.22,0,0,0,79.82,97L94,82.82A6.9,6.9,0,0,0,96,78Z"/><path class="cls-2" d="M52.71,62.43a6.86,6.86,0,0,0,11.51,5l.42-.39L78.57,53.14A27.49,27.49,0,0,1,117.43,92L71,138.48a21.86,21.86,0,0,0,21.72-2.27l4.75-4.75,29.71-29.74a41.22,41.22,0,1,0-58.29-58.3L54.72,57.55A7,7,0,0,0,52.71,62.43Z"/><rect class="cls-3" x="43.03" y="123.03" width="12.56" height="12.56" transform="translate(175.62 185.88) rotate(135)"/><rect class="cls-4" x="23.43" y="121.37" width="8.72" height="8.72" transform="translate(136.34 194.98) rotate(135)"/><rect class="cls-5" x="1.39" y="121.48" width="6.69" height="6.69" transform="translate(96.34 209.74) rotate(135)"/><rect class="cls-6" x="9.1" y="130.12" width="6.69" height="6.69" transform="translate(115.61 219.05) rotate(135)"/><rect class="cls-7" x="28.8" y="133.84" width="8.72" height="8.72" transform="translate(154.32 212.47) rotate(135)"/><rect class="cls-8" x="12.2" y="117.24" width="6.69" height="6.69" transform="translate(111.79 194.85) rotate(135)"/><path class="cls-9" d="M94.48,150.15l37.24-37.24a21.82,21.82,0,0,1,21.25-2c-.72.86-1.49,1.7-2.3,2.51l-26.34,26.37-8.12,8.13a21.84,21.84,0,0,1-21.73,2.26Z"/></g></g></svg>