<?xml version="1.0" standalone="no"?><!DOCTYPE svg PUBLIC "-//W3C//DTD SVG 1.1//EN" "http://www.w3.org/Graphics/SVG/1.1/DTD/svg11.dtd"><svg t="1673058418923" class="icon" viewBox="0 0 1024 1024" version="1.1" xmlns="http://www.w3.org/2000/svg" p-id="9425" xmlns:xlink="http://www.w3.org/1999/xlink" width="16" height="16"><path d="M477.3888 988.398933a106.530133 106.530133 0 0 0 69.2224 0c152.7808-52.394667 207.9744-95.197867 207.9744-95.197866 158.8224-108.305067 160.221867-250.504533 160.221867-250.504534V193.911467c0-22.016-17.92-40.925867-39.936-41.710934-112.64-3.9936-278.766933-86.801067-339.5584-119.1936a49.493333 49.493333 0 0 0-46.728534 0c-60.757333 32.290133-226.781867 115.2-339.592533 119.1936A42.0864 42.0864 0 0 0 109.090133 193.911467v448.785066s1.399467 142.199467 160.221867 250.504534c0.1024 0 55.296 42.8032 208.0768 95.197866z" fill="#F24827" p-id="9426"></path><path d="M483.089067 907.093333a89.429333 89.429333 0 0 0 57.821866 0c127.5904-43.690667 173.704533-79.496533 173.704534-79.496533 132.573867-90.385067 133.802667-209.2032 133.802666-209.2032V248.593067c0-18.397867-15.018667-34.0992-33.314133-34.816-94.1056-3.2768-232.789333-72.465067-283.511467-99.464534a41.437867 41.437867 0 0 0-38.980266 0c-50.722133 26.965333-189.44 96.187733-283.511467 99.498667-18.295467 0.580267-33.314133 16.384-33.314133 34.816v369.7664s1.2288 118.784 133.802666 209.237333c-0.2048 0 45.909333 35.771733 173.499734 79.4624z" fill="#FF8D4C" p-id="9427"></path><path d="M512 109.397333c-6.690133 0-13.4144 1.604267-19.490133 4.9152-50.722133 26.965333-189.44 96.187733-283.511467 99.498667-18.295467 0.580267-33.314133 16.384-33.314133 34.816v369.7664s1.2288 118.784 133.802666 209.237333c0 0 46.114133 35.771733 173.738667 79.4624 9.284267 3.208533 19.080533 4.778667 28.8768 4.778667V109.431467H512z" fill="#FAC570" opacity=".501" p-id="9428"></path><path d="M848.384 563.5072v54.8864s-1.194667 118.784-133.802667 209.237333c0 0-22.084267 17.169067-77.994666 42.154667l47.445333 63.419733c55.159467-27.409067 104.174933-59.016533 140.458667-99.089066 59.733333-67.242667 84.104533-126.805333 89.8048-182.510934l-65.877334-88.098133z" fill="#DC3514" p-id="9429"></path><path d="M848.384 563.5072l-309.9648-290.2016L512 538.0096l0.1024 212.6848 124.484267 118.9888c55.9104-25.088 78.0288-42.1888 78.0288-42.1888 132.573867-90.282667 133.802667-209.1008 133.802666-209.1008V563.541333z" fill="#F34E27" opacity=".557" p-id="9430"></path><path d="M566.545067 561.220267V327.918933a54.613333 54.613333 0 0 0-109.1584 0v233.301334a54.613333 54.613333 0 0 0 109.1584 0z m-54.4768 189.474133a54.613333 54.613333 0 1 0-0.1024-109.192533 54.613333 54.613333 0 0 0 0.1024 109.226666z" fill="#FFFFFF" p-id="9431"></path></svg>